<?xml version="1.0" encoding="UTF-8"?>
<svg id="Capa_1" data-name="Capa 1" xmlns="http://www.w3.org/2000/svg" xmlns:xlink="http://www.w3.org/1999/xlink" viewBox="0 0 180 180">
  <defs>
    <style>
      .cls-1 {
        fill: #244481;
      }

      .cls-2, .cls-3 {
        fill: #fff;
      }

      .cls-3 {
        isolation: isolate;
        opacity: .08;
      }

      .cls-4 {
        fill: #b58d41;
      }

      .cls-5 {
        fill: url(#Degradado_sin_nombre);
      }
    </style>
    <linearGradient id="Degradado_sin_nombre" data-name="Degradado sin nombre" x1="-588.71" y1="473.37" x2="-587.71" y2="472.37" gradientTransform="translate(105968 85207) scale(180 -180)" gradientUnits="userSpaceOnUse">
      <stop offset="0" stop-color="#3d5a84"/>
      <stop offset="1" stop-color="#2b4f8a"/>
    </linearGradient>
  </defs>
  <rect class="cls-5" x="0" y="0" width="180" height="180" rx="2" ry="2"/>
  <circle class="cls-3" cx="140" cy="40" r="55"/>
  <g id="Capa_1-2" data-name="Capa 1-2">
    <g>
      <path class="cls-2" d="M84.03,123.88c12.12,3.27,24.01,1.3,35.35-3.64,4.93-2.15,9.28-5.04,13.6-7.95-12.23,12.03-31.06,19.1-47.83,18.41-10-.41-19.64-2.99-28.27-7.96-13.6-7.82-21.89-22.19-19.68-38.08,1.7-12.25,7.28-23.76,15.82-32.72,16.53-17.34,44.67-21.64,66.76-13.9,9.73,3.46,18.38,8.96,25.53,16.66l-16.25,11.97c-5.2-5.69-11.51-9.54-18.77-11.68-9.16-2.65-18.87-2.39-27.87.75-6.11,2.28-11.53,5.58-15.99,10.31-13.11,13.93-12.51,35.21,1.03,48.6,4.63,4.58,10.32,7.55,16.57,9.23h0Z"/>
      <g>
        <path class="cls-4" d="M138.58,111.7c0,.82-3.07,3.26-3.65,3.83-2.95,2.92-8.76,7.18-12.36,9.34-9.02,5.4-18.87,9.08-29.33,10.44-.92.12-1.76.09-2.56.26-1.29.28-2.49.05-3.76.18-1.61.16-3.06.16-4.66.05l-3.51-.23c-12.41-.81-26.21-6.41-34.94-15.61-2.85-3-6.05-7.42-7.69-11.22-.1-.22-.35-.29-.47-.29-.16,0-.2.04-.23.15-.05.18.08.25.14.44,2.31,7.94,6.56,14.93,12.07,21.03.98,1.08,1.89,1.91,2.98,2.89,4.29,3.9,9.05,7.07,14.36,9.51,8.38,3.86,18.93,5.75,28.1,5.16,11.37-.73,22.12-4.27,31.52-10.81,5.33-3.7,9.84-8.24,13.65-13.49,1.21-1.66,2.14-3.82,3.11-4.66.72,1.26,1.23,2.51,1.59,3.99-3.15,5.15-7.03,9.55-11.61,13.49-17.31,14.9-41.89,19.12-63.35,11.47-27.19-9.7-43.08-37.92-37.37-66.3,4.72-23.51,24.48-41.56,47.07-47.95,26.27-7.42,55.41.4,72.9,21.96l-15.65,11.5-6.48,4.61c-7.65-9.58-18.96-14.69-31.08-14.6-9.92.08-19.37,3.47-26.68,10.15-9.52,8.72-12.69,22.33-7.85,34.31,4.78,11.84,15.31,18.72,27.83,20.16,14.17,1.64,27.82-3.19,39.24-11.49,3.03.52,5.92.81,8.66,1.71h0ZM84.03,123.88c-6.25-1.68-11.94-4.65-16.57-9.23-13.54-13.39-14.14-34.67-1.03-48.6,4.45-4.73,9.87-8.02,15.99-10.31,9-3.14,18.71-3.4,27.87-.75,7.26,2.14,13.57,5.99,18.77,11.68l16.25-11.97c-7.15-7.7-15.8-13.2-25.53-16.66-22.09-7.74-50.23-3.43-66.76,13.91-8.53,8.95-14.12,20.47-15.82,32.72-2.21,15.9,6.08,30.26,19.68,38.08,8.64,4.97,18.27,7.55,28.27,7.96,16.77.69,35.61-6.37,47.83-18.41-4.33,2.91-8.68,5.8-13.6,7.95-11.35,4.94-23.23,6.91-35.35,3.64h0ZM133.41,112.06c0-.07-.05-.12-.12-.12s-.12.05-.12.12.05.12.12.12.12-.05.12-.12Z"/>
        <path class="cls-1" d="M138.58,111.7c.43.14.63.03.78.55.68,2.25,1.75,4.65,1.99,6.43-.97.84-1.91,3-3.11,4.66-3.81,5.25-8.32,9.79-13.65,13.49-9.41,6.53-20.15,10.08-31.52,10.81-9.17.59-19.72-1.3-28.1-5.16-5.31-2.44-10.07-5.61-14.36-9.51-1.09-.99-2-1.81-2.98-2.89-5.52-6.09-9.76-13.08-12.07-21.03-.05-.18-.18-.26-.14-.44.03-.11.08-.16.23-.15.12,0,.37.07.47.29,1.65,3.79,4.85,8.21,7.69,11.22,8.73,9.2,22.53,14.8,34.94,15.61l3.51.23c1.59.1,3.05.1,4.66-.05,1.27-.13,2.46.1,3.76-.18.8-.17,1.65-.14,2.56-.26,10.46-1.37,20.31-5.04,29.33-10.44,3.6-2.15,9.41-6.41,12.36-9.34.58-.57,3.64-3.01,3.65-3.83h0Z"/>
        <circle class="cls-2" cx="133.3" cy="112.06" r=".12"/>
        <g>
          <path class="cls-4" d="M142.16,111.33l15-13.44-17.06,11-17.42-3.13c.78-.62,1.56-.6,2.41-1l38.17-11.55-15.47,29.41c-.42.56-.48,1.17-1.16,1.47l-4.48-12.77h0ZM158.29,97.1c-.69.08-1.06.39-1.24.93.67-.1.86-.6,1.24-.93Z"/>
          <path class="cls-2" d="M158.29,97.1c-.38.33-.58.83-1.24.93.18-.54.55-.85,1.24-.93Z"/>
        </g>
      </g>
      <g>
        <path class="cls-4" d="M101.09,84.93l-.08,13.86c-.66.27-1.26.38-1.94.24l-.1-10.38h-4.51l-.13,11.33c-.63.2-1.17.27-1.82.21l-.07-11.71-6.14-7.68-.2,20.11c0,.3-.55.3-.62.16s-.41-.25-.49-.52l-5.26-18.39c-.56-1.96-1.5-3.48-3.47-4.22l.05-8.65,10.51.03,11.38,14.07,11.81-14.06h10.58s0,26,0,26l-8.19,1.38-.03-16.27c-1.65-.12-3.04-.12-4.68.02l-.04,16.98c-.4.49-1.38.55-1.99.35l-.03-12.8c-1.46-.21-2.77-.04-4.56-.07h0Z"/>
        <path class="cls-4" d="M110.84,103.89c1.41.46,3.53.26,4.02,2.26.67,2.72-1.58,2.62-1.25,4.4s-.48,3.42-1.88,4.23c-1.45.84-3.33.76-4.57-.21-1.38-1.09-1.97-2.65-1.51-4.73l-16.02-.02c.34,2.07-.25,3.9-1.87,4.89s-3.76.81-5.08-.49c-1.46-1.44-1.47-3.45-.73-5.39-1.31-.78-2.51-1.78-2.94-3.4l-5.5-20.47c-.17-.64-.59-1.19-1.2-1.32l-5.54-1.2c-1.44-.31-2.19-1.66-2.01-2.98s1.28-2.69,2.85-2.46c2.44.36,4.68.88,7.1,1.37,1.52.31,3.22,1.28,3.7,2.89l5.65,19.2c.39,1.33,1.52,1.97,2.89,1.73l35.6-6.19c-.99,2.09-2.3,3.74-3.42,5.58-.5.82-1.32,1.25-2.27,1.39-2.08.3-4.06.43-6.02.89h0ZM112.02,105.39l-19.12-.09,23.78-3.53c.43-.06.96-.2,1.2-.52.8-1.13,1.74-2.12,2.17-3.64l-33.18,5.81c-1.68.29-3.34-.85-3.82-2.48l-5.35-18.34c-.46-1.59-1.44-2.67-3.1-3l-6.77-1.35c-.93-.19-1.64.51-1.78,1.25-.17.87.37,1.6,1.27,1.84,1.73.46,3.43.74,5.18,1.1,1,.2,1.81.8,2.1,1.85l5.65,21.08c.45.91,1.57,2.48,2.6,1.95,2.27-1.16,4.86-1.14,6.38,1.23l15.61.09c.73,0,1.32-.12,1.72-.75,1.83-1.81,4.86-1.75,6.4.44.78-.4.85-1.23.64-1.94-.17-.55-.8-.97-1.55-.97h0ZM88.46,111.23c0-1.6-1.3-2.9-2.9-2.9s-2.9,1.3-2.9,2.9,1.3,2.9,2.9,2.9,2.9-1.3,2.9-2.9ZM112.49,111.25c0-1.58-1.28-2.86-2.86-2.86s-2.86,1.28-2.86,2.86,1.28,2.86,2.86,2.86,2.86-1.28,2.86-2.86Z"/>
        <path class="cls-2" d="M112.02,105.39c.76,0,1.39.42,1.55.97.21.71.14,1.54-.64,1.94-1.54-2.2-4.57-2.25-6.4-.44-.41.64-.99.76-1.72.75l-15.61-.09c-1.52-2.36-4.11-2.39-6.38-1.23-1.03.53-2.15-1.04-2.6-1.95l-5.65-21.08c-.28-1.05-1.1-1.65-2.1-1.85-1.76-.36-3.45-.64-5.18-1.1-.9-.24-1.44-.97-1.27-1.84.14-.74.85-1.43,1.78-1.25l6.77,1.35c1.67.33,2.64,1.41,3.1,3l5.35,18.34c.48,1.63,2.14,2.77,3.82,2.48l33.18-5.81c-.42,1.52-1.36,2.51-2.17,3.64-.23.33-.76.46-1.2.52l-23.78,3.53,19.12.09h0Z"/>
        <circle class="cls-2" cx="85.56" cy="111.23" r="2.9"/>
        <circle class="cls-2" cx="109.63" cy="111.25" r="2.86"/>
      </g>
    </g>
  </g>
</svg>