<svg version="1.1" id="Layer_1" xmlns="http://www.w3.org/2000/svg" xmlns:xlink="http://www.w3.org/1999/xlink" x="0px" y="0px"
	 width="100%" viewBox="0 0 512 1024" enable-background="new 0 0 512 1024" xml:space="preserve">
<path fill="#000000" opacity="1.000000" stroke="none" 
	d="
M194.184738,670.932007 
	C133.237518,655.376770 90.755592,619.108704 67.664627,560.828003 
	C56.721066,533.206909 53.689445,504.615875 57.427959,475.026855 
	C63.181786,429.487396 84.887085,392.851349 118.385399,362.555054 
	C146.038345,337.545441 178.299942,321.213531 214.661179,313.274933 
	C268.862061,301.441406 320.545593,308.355957 369.225342,335.366974 
	C389.820679,346.794769 407.591522,361.733673 422.889252,379.663696 
	C425.572479,382.808655 425.587372,384.755615 422.130768,387.254303 
	C402.286438,401.599365 382.472595,415.989868 362.842712,430.625549 
	C358.800018,433.639648 356.601166,433.067200 353.456299,429.411621 
	C312.281525,381.550049 239.184509,377.764221 191.629700,412.668640 
	C134.572372,454.547760 141.910873,541.084656 205.437698,572.535828 
	C226.131927,582.781250 248.004272,585.875183 270.940002,584.028625 
	C303.451233,581.411011 332.095459,569.032104 358.525970,550.718018 
	C361.407288,548.721497 363.960693,548.190063 367.337189,549.025513 
	C373.791199,550.622437 380.352142,551.792908 386.880615,553.079712 
	C389.332733,553.563049 390.987061,554.581787 391.888031,557.200256 
	C394.811798,565.697205 397.895050,574.144409 401.152679,582.519043 
	C402.618927,586.288452 402.296875,589.426270 400.036499,592.826477 
	C382.491333,619.219482 359.469299,639.475159 331.427185,654.026672 
	C294.702667,673.083740 255.644714,679.534546 214.682220,674.795471 
	C207.928558,674.014099 201.280701,672.318359 194.184738,670.932007 
M391.074921,393.541077 
	C394.975006,390.690247 398.825714,387.768463 402.790497,385.010651 
	C406.045929,382.746246 406.152222,380.723236 403.300293,377.833191 
	C376.023560,350.191895 343.069977,333.215088 305.243347,325.307617 
	C281.345703,320.311920 257.308411,320.054047 233.190704,323.341034 
	C208.474075,326.709625 185.244461,334.518280 163.752625,347.225464 
	C130.222122,367.050446 107.093605,395.749512 92.545235,431.590698 
	C82.274879,456.892700 77.216263,483.063477 82.750748,510.198944 
	C87.802834,534.969238 100.578339,555.662170 119.626724,572.230652 
	C137.919479,588.141907 159.321609,598.225891 182.582870,604.727600 
	C206.656158,611.456299 231.132004,613.332886 255.824097,610.364929 
	C284.113403,606.964539 310.375244,597.083801 335.080780,583.052795 
	C338.461243,581.132935 342.059235,579.237427 344.445343,575.902405 
	C334.153107,579.944824 324.328918,584.867920 313.865631,588.339600 
	C285.650238,597.701477 257.044006,600.847168 227.779602,594.249939 
	C180.175903,583.518250 148.950592,551.213989 140.477097,505.434570 
	C134.667343,474.046356 143.093781,445.222321 163.673477,420.998474 
	C194.087433,385.198975 234.352768,372.975708 279.876251,377.214966 
	C309.437500,379.967804 335.303894,392.205841 356.610840,413.276031 
	C358.971405,415.610382 360.876343,415.738770 363.504883,413.770294 
	C372.436920,407.080963 381.486572,400.548676 391.074921,393.541077 
z"/>
<path fill="#000000" opacity="1.000000" stroke="none" 
	d="
M198.430267,426.655396 
	C199.273193,425.385529 200.186951,424.975464 201.217331,424.970062 
	C210.713531,424.920441 220.209900,424.874939 229.706161,424.887970 
	C232.410568,424.891693 233.684937,427.058716 235.132156,428.860016 
	C243.894943,439.766144 252.594894,450.723175 261.412933,461.584381 
	C265.607544,466.750946 266.415802,466.618896 270.773254,461.373230 
	C279.819092,450.483307 288.958282,439.670563 297.955566,428.740906 
	C300.131409,426.097778 302.511658,424.745209 306.065369,424.851776 
	C313.556335,425.076416 321.058838,424.892487 328.556244,424.934143 
	C334.723694,424.968445 335.074799,425.325684 335.082214,431.440369 
	C335.109741,454.100525 335.160400,476.760864 335.085449,499.420715 
	C335.072876,503.218842 335.216827,506.546478 341.266571,506.876282 
	C334.531342,518.148804 331.083313,531.272339 314.739624,530.751404 
	C315.256683,534.813843 318.873383,537.345154 317.743896,540.378540 
	C315.276245,547.005554 314.878326,554.288818 311.688263,560.549744 
	C309.150024,565.531372 304.217010,567.623474 298.577759,566.901550 
	C292.441345,566.115967 288.334412,562.301086 287.234375,556.449829 
	C286.264618,551.291565 283.766876,550.092346 279.022766,550.239197 
	C268.367950,550.568970 257.699310,550.552795 247.037277,550.496277 
	C243.471008,550.477356 241.680344,551.531738 241.006775,555.385498 
	C239.685623,562.944092 232.555847,567.920837 225.340286,566.941284 
	C218.522858,566.015747 213.398209,559.830383 213.804428,552.298889 
	C214.010010,548.487671 213.245285,545.558716 210.323807,542.992676 
	C207.296051,540.333313 206.617432,536.370361 205.614960,532.697693 
	C200.619644,514.396790 195.578522,496.106781 190.827042,477.742157 
	C189.578629,472.916962 187.216721,470.229889 182.180908,469.613251 
	C178.396820,469.149902 174.669922,468.155151 170.946732,467.273804 
	C165.443771,465.971161 162.381104,461.861420 163.060333,456.869690 
	C163.825836,451.243713 167.451279,448.084412 173.577026,448.760529 
	C179.673218,449.433350 185.685120,450.899750 191.720108,452.088593 
	C197.148651,453.157959 197.702240,452.734528 197.820709,447.036591 
	C197.959106,440.379852 198.100037,433.723145 198.430267,426.655396 
M299.250732,526.839905 
	C305.821289,525.855835 312.366486,524.611755 318.970184,523.967651 
	C324.543549,523.423950 326.854584,520.086121 328.568909,514.781616 
	C324.085907,514.270264 320.164520,514.974365 316.373413,515.727051 
	C288.810577,521.199768 261.110168,525.882141 233.377548,530.380798 
	C224.590439,531.806152 220.120941,528.489258 217.691177,519.889465 
	C212.671783,502.124023 207.376556,484.436707 202.239426,466.704315 
	C200.955566,462.272675 198.082397,459.524689 193.678024,458.528046 
	C187.683716,457.171570 181.641678,456.025330 175.617310,454.802734 
	C173.246307,454.321533 171.127991,454.737061 170.406906,457.330231 
	C169.563507,460.363342 171.719284,461.615936 174.122131,462.189026 
	C178.161835,463.152557 182.233795,464.095764 186.346939,464.607391 
	C191.524719,465.251495 194.377579,468.044464 195.640747,472.948944 
	C198.502594,484.060638 201.384583,495.168243 204.400116,506.238953 
	C206.977631,515.701599 209.531784,525.181152 212.524109,534.516113 
	C214.281509,539.998535 216.546890,540.769165 221.981003,538.989136 
	C227.219009,537.273499 232.305817,537.362732 236.527725,541.226685 
	C238.978088,543.469238 241.610489,544.065735 244.706573,544.081848 
	C256.192230,544.141541 267.677887,544.400452 279.162567,544.350403 
	C284.087982,544.328857 288.748260,544.003845 293.047516,540.261292 
	C297.131561,536.706116 302.574707,536.776062 307.592804,539.588440 
	C308.485504,540.088745 309.304718,541.389465 310.805969,540.122742 
	C309.819183,536.198547 306.557587,537.189575 303.989166,537.150818 
	C286.351105,536.884644 268.697968,537.758179 251.075348,536.477478 
	C249.011032,536.327393 246.621719,537.970886 243.847733,534.872864 
	C262.628571,532.132385 280.497192,529.524963 299.250732,526.839905 
M246.162628,483.601654 
	C241.337158,477.792969 237.280594,471.333466 231.724487,465.913391 
	C229.884338,467.704315 230.377502,469.609741 230.384476,471.357727 
	C230.440933,485.483490 230.892303,499.619019 230.502960,513.731689 
	C230.193329,524.955872 231.039871,525.918884 242.107468,523.220398 
	C245.627686,522.362122 247.044464,520.685425 247.046753,517.044006 
	C247.052368,508.067780 247.372482,499.091736 247.570053,490.115723 
	C247.614487,488.096619 247.374710,486.130981 246.162628,483.601654 
M295.973480,483.501984 
	C295.978638,490.831543 295.971008,498.161102 295.992371,505.490631 
	C296.016479,513.755127 298.040649,515.096313 305.772827,512.052856 
	C307.060669,511.545929 308.186676,511.096069 308.168427,509.347748 
	C308.013489,494.528229 307.992706,479.706787 307.744171,464.889069 
	C307.659454,459.839111 303.522125,461.274780 300.615906,461.077850 
	C297.548950,460.870026 295.394043,461.851715 295.532990,465.528412 
	C295.746674,471.184265 295.836365,476.844788 295.973480,483.501984 
M287.138153,512.432861 
	C287.191040,501.615967 287.995972,490.809631 287.439423,479.981110 
	C287.222748,475.765656 284.963470,474.790100 281.207031,474.835815 
	C277.359222,474.882599 275.796967,476.489349 275.896149,480.274292 
	C276.031342,485.432800 275.771210,490.604248 275.984283,495.757538 
	C276.270050,502.669006 274.956757,509.631897 276.439392,517.101440 
	C280.174469,515.524048 284.757843,517.890991 287.138153,512.432861 
M267.014893,494.628693 
	C267.023560,493.965240 266.982300,493.296753 267.048828,492.639130 
	C267.503296,488.147858 265.945007,485.981171 260.977264,485.914612 
	C255.988113,485.847778 255.215347,488.260834 255.309265,492.373169 
	C255.487137,500.160980 255.294235,507.956848 255.426956,515.746460 
	C255.458588,517.603210 254.306412,520.417847 257.939911,520.570374 
	C263.029480,520.783936 266.905273,518.661438 266.937286,515.499390 
	C267.004486,508.864777 266.989380,502.229370 267.014893,494.628693 
M302.084686,546.272888 
	C300.779663,546.394775 299.388550,546.268250 298.185699,546.685059 
	C294.511749,547.958130 292.331573,551.974121 293.539948,555.441162 
	C294.801697,559.061523 297.299500,561.387695 301.424927,560.830994 
	C305.766113,560.245178 307.612488,557.232666 307.780670,553.184692 
	C307.922821,549.764038 305.807434,547.719116 302.084686,546.272888 
M221.272629,549.904541 
	C219.718048,555.023804 220.927124,559.075989 224.680923,560.424805 
	C228.137939,561.667053 231.317383,561.077698 233.388992,557.730225 
	C235.626190,554.115112 235.021530,550.634521 232.012177,547.820007 
	C228.932907,544.940002 225.344574,545.554138 221.272629,549.904541 
z"/>
<path fill="#000000" opacity="1.000000" stroke="none" 
	d="
M449.051178,501.891052 
	C454.069946,500.708099 458.403656,498.351562 465.152466,498.202362 
	C447.963379,530.707031 431.286652,562.242798 414.698822,593.610535 
	C411.419983,592.772949 411.306152,590.733337 410.725311,589.098999 
	C407.046509,578.747620 403.635010,568.293884 399.655853,558.060303 
	C398.151031,554.190125 399.049042,552.009460 401.995605,549.555664 
	C410.561615,542.421997 418.944366,535.067932 427.377075,527.774963 
	C428.313995,526.964661 429.760223,526.472595 429.568207,523.955017 
	C423.164001,528.098083 417.039825,531.889221 411.092346,535.939819 
	C393.707153,547.780212 393.745941,547.760559 373.183929,543.942993 
	C363.695740,542.181335 354.154022,540.708069 344.636932,539.101929 
	C342.533722,538.747009 340.301453,538.720520 338.485382,536.580505 
	C340.898499,534.309570 343.985168,533.776855 346.896515,532.893127 
	C380.820984,522.596130 414.746582,512.302734 449.051178,501.891052 
z"/>
</svg>